<?xml version="1.0" standalone="no"?>
<!DOCTYPE svg PUBLIC "-//W3C//DTD SVG 20010904//EN"
 "http://www.w3.org/TR/2001/REC-SVG-20010904/DTD/svg10.dtd">
<svg version="1.0" xmlns="http://www.w3.org/2000/svg"
 width="1024.000000pt" height="1024.000000pt" viewBox="0 0 1024.000000 1024.000000"
 preserveAspectRatio="xMidYMid meet">

<g transform="translate(0.000000,1024.000000) scale(0.100000,-0.100000)"
fill="#000000" stroke="none">
<path d="M3855 6708 c6 -27 25 -209 25 -237 0 -13 -9 -21 -30 -26 -72 -16
-172 -101 -299 -253 -96 -116 -163 -162 -281 -193 l-65 -17 37 -16 c59 -25
148 -46 198 -46 57 0 172 24 212 45 17 8 32 14 33 13 1 -2 -13 -48 -30 -103
-18 -55 -56 -174 -85 -265 -28 -91 -69 -217 -89 -280 l-38 -115 13 -110 c7
-60 13 -111 14 -112 0 -1 73 -45 161 -98 l161 -97 85 31 c47 17 92 31 102 31
11 0 24 21 40 68 13 37 37 101 53 143 l29 76 72 12 c88 15 196 65 260 121 l47
42 21 -49 c28 -65 67 -202 75 -263 4 -28 9 -52 13 -54 3 -2 32 11 64 30 32 19
85 48 118 65 54 28 58 33 53 57 -67 304 -203 555 -372 687 -31 25 -60 45 -63
45 -3 0 0 -24 8 -52 23 -82 22 -193 -2 -257 -24 -64 -81 -132 -140 -166 -44
-26 -217 -75 -264 -75 -25 0 -30 -8 -79 -142 -29 -79 -52 -149 -52 -155 0 -7
-2 -13 -4 -13 -15 0 -236 131 -236 140 0 15 213 649 245 730 21 52 70 151 109
220 l71 125 0 136 0 137 24 -19 c44 -35 136 -146 160 -193 20 -42 24 -45 35
-30 28 38 214 -6 381 -91 131 -65 223 -133 324 -235 164 -166 276 -357 337
-573 13 -47 19 -57 32 -52 10 4 32 9 50 12 37 7 37 6 17 128 -31 191 -98 360
-205 521 -75 113 -245 276 -356 342 -108 66 -80 59 83 -18 163 -78 255 -143
370 -264 177 -186 275 -371 323 -608 l11 -56 32 9 c18 5 80 12 140 16 83 5
107 9 107 20 0 32 -41 174 -74 255 -92 228 -219 414 -399 584 -187 178 -439
300 -714 349 -114 20 -327 19 -432 0 l-81 -16 -174 91 c-95 49 -176 90 -180
90 -3 0 -4 -10 -1 -22z"/>
<path d="M5735 5149 c-190 -20 -460 -92 -695 -186 -519 -207 -901 -544 -1058
-932 -42 -105 -79 -283 -88 -422 -6 -103 7 -267 27 -341 l10 -38 134 0 c74 0
135 1 135 3 0 1 -7 38 -15 82 -19 104 -19 300 0 406 37 216 127 385 297 565
149 157 291 257 523 370 378 183 746 272 1015 244 229 -23 393 -117 469 -268
85 -169 57 -358 -78 -520 -74 -89 -182 -174 -286 -226 -110 -55 -161 -72 -402
-135 -320 -84 -478 -149 -590 -243 -35 -28 -61 -53 -60 -54 1 -2 34 6 72 17
124 35 257 58 405 69 80 6 204 15 275 20 198 15 382 63 528 137 190 96 345
267 403 446 31 96 30 56 -1 -63 -43 -160 -95 -249 -210 -365 -154 -154 -355
-241 -730 -316 -238 -47 -341 -78 -439 -133 -37 -21 -66 -39 -64 -40 2 -1 194
1 428 5 319 5 442 11 495 22 383 82 666 333 765 677 33 113 38 305 12 431 -35
170 -135 341 -278 480 -259 249 -588 351 -999 308z"/>
<path d="M4830 4278 c-75 -42 -178 -148 -228 -233 -66 -113 -84 -180 -90 -332
-5 -155 8 -261 49 -390 l30 -92 152 -3 c84 -2 153 -3 154 -3 1 0 -11 30 -27
66 -58 131 -82 248 -87 431 -7 230 23 403 96 546 12 23 18 42 14 42 -5 0 -33
-14 -63 -32z"/>
</g>
</svg>
